<?xml version="1.0" encoding="UTF-8"?>
<svg version="1.1" xmlns="http://www.w3.org/2000/svg" width="512" height="417">
<path d="M0 0 C0.66966797 -0.01224609 1.33933594 -0.02449219 2.02929688 -0.03710938 C11.6551191 -0.06469053 20.27889871 3.06448629 29.30654907 6.14834595 C46.84260611 12.12813964 64.46902517 17.83328666 82.09689331 23.53488159 C85.88315842 24.75963255 89.66873614 25.9864927 93.45409489 27.21404171 C108.77516788 32.18208036 124.10240812 37.12917331 139.4511261 42.01121521 C145.21662307 43.84530464 150.97922561 45.68841162 156.74116039 47.53365803 C161.44982224 49.04066278 166.16217019 50.53533298 170.87759209 52.02104092 C173.80006777 52.94504176 176.7187403 53.88062061 179.6364975 54.81940269 C180.98615249 55.25102235 182.33735537 55.6778371 183.69019318 56.09937477 C196.47360792 60.08734942 196.47360792 60.08734942 201.3125 65.1875 C203.04269107 68.64788214 202.65405687 72.39753248 202.3125 76.1875 C201.3125 79.0625 201.3125 79.0625 199.3125 81.1875 C192.83512094 83.86389432 186.13463562 85.86986814 179.4453125 87.9453125 C178.32937714 88.2938327 177.21344177 88.64235291 176.06369019 89.00143433 C172.52229456 90.10727747 168.97998977 91.21016734 165.4375 92.3125 C161.87365285 93.42218078 158.31002245 94.53253544 154.74703979 95.64498901 C152.53509779 96.33556502 150.32264785 97.02451658 148.10964966 97.71170044 C147.1145639 98.02227386 146.11947815 98.33284729 145.09423828 98.65283203 C143.77808029 99.06228561 143.77808029 99.06228561 142.43533325 99.48001099 C140.29250582 100.13855018 140.29250582 100.13855018 138.3125 101.1875 C138.84617187 101.95449219 139.37984375 102.72148438 139.9296875 103.51171875 C163.85089436 138.77145814 172.39927402 181.54551547 164.87792969 223.42333984 C162.65702595 234.28045217 159.30086363 244.86048702 155.3125 255.1875 C161.33497574 257.06952367 166.94986905 255.01951048 172.34765625 252.2421875 C174.37711748 251.15954572 176.3912388 250.05344886 178.40039062 248.93359375 C182.88212172 246.55553235 186.1139996 245.64427882 191.3125 246.1875 C194.6875 247.6875 194.6875 247.6875 197.3125 250.1875 C199.42521421 259.69471393 195.54623603 267.83378501 190.66796875 275.91015625 C182.56373412 286.97518854 173.06474242 290.72003633 160.3125 294.1875 C159.3225 294.5175 158.3325 294.8475 157.3125 295.1875 C155.45082256 295.22395118 153.58771984 295.20167073 151.7265625 295.14453125 C150.63085938 295.12326172 149.53515625 295.10199219 148.40625 295.08007812 C146.10125727 295.02686602 143.79650583 294.9618375 141.4921875 294.88476562 C135.01590827 294.70524372 135.01590827 294.70524372 129.09765625 296.9921875 C126.50459927 300.18102343 126.10369722 302.08104532 126.3125 306.1875 C130.89158299 315.68963466 144.19163577 320.93435779 153.2890625 324.984375 C156.49500205 326.89060933 157.99043332 328.95223158 158.9296875 332.5546875 C159.48107719 337.91820536 159.72066391 341.67992838 156.3125 346.1875 C148.81072097 351.3672998 139.78914925 350.51477851 131.1640625 349.25 C118.66497082 346.77969417 105.0487139 342.79425937 93.7109375 336.93359375 C89.75425522 334.90067768 86.62685687 334.22159921 82.3125 335.1875 C78.82066225 336.73451672 75.04431539 338.45568461 72.3125 341.1875 C72.3125 347.72788994 74.01142917 350.6937725 78.4765625 355.38671875 C79.95114298 356.83306258 81.44179173 358.26301593 82.9375 359.6875 C87.99984485 365.01628406 91.49441404 370.82472634 92.3125 378.1875 C90.75875231 383.14133192 87.54817415 386.28940716 83.3125 389.1875 C79.6521382 391.0176809 76.1147688 390.16403898 72.3125 389.1875 C59.8422992 384.04575844 49.73965493 375.55656007 39.3125 367.1875 C28.65016427 358.71565773 17.61257394 354.2481077 3.81640625 354.6796875 C-0.64091142 355.32567557 -3.9973412 356.78137409 -7.83203125 359.09375 C-9.6875 360.1875 -9.6875 360.1875 -11.6875 360.1875 C-11.955625 360.785625 -12.22375 361.38375 -12.5 362 C-14.74612943 366.13760685 -17.71401967 367.81278567 -21.6875 370.1875 C-23.1560078 371.10953002 -24.62190168 372.03572931 -26.0859375 372.96484375 C-26.89546875 373.47853516 -27.705 373.99222656 -28.5390625 374.52148438 C-30.21402084 375.58583484 -31.88850457 376.6509326 -33.5625 377.71679688 C-55.54033772 391.65353683 -55.54033772 391.65353683 -67.6875 390.1875 C-71.83144666 388.62374654 -74.50579999 387.09159475 -76.6875 383.1875 C-78.30208663 379.15103343 -77.51361018 375.82026725 -76.11328125 371.8515625 C-73.90208612 367.71995954 -70.82677209 364.36945644 -67.62402344 360.96875 C-63.44313081 356.41086841 -62.27319363 352.11596813 -61.0625 346.0625 C-61.80358043 342.65353002 -62.470522 342.20154839 -65.25 340.25 C-68.10497651 338.71538785 -69.64465232 338.18997198 -72.9375 338 C-77.37863971 339.40636091 -81.31188353 341.35342867 -85.4375 343.50390625 C-90.76400091 346.26318737 -96.21321639 348.73756777 -101.6875 351.1875 C-102.55246094 351.58195312 -103.41742188 351.97640625 -104.30859375 352.3828125 C-113.38219311 356.30260742 -125.42911925 359.54915311 -135 355.9375 C-139.30529767 353.13405036 -140.40153936 351.43347135 -141.5625 346.375 C-141.91806156 342.10826129 -141.15473566 338.71212237 -138.6875 335.1875 C-135.01228506 331.34369722 -130.78860635 328.24398644 -126.5 325.125 C-121.59669012 321.50290862 -117.17954751 317.30489479 -115.6875 311.1875 C-115.99264002 307.46278604 -115.99264002 307.46278604 -116.6875 304.1875 C-121.55872495 302.94137269 -124.93796503 303.36057517 -129.8125 304.625 C-142.25168437 307.6992149 -154.04131894 306.97577244 -165.41015625 300.6796875 C-173.47322871 295.32092219 -181.78658748 288.69604658 -184.6875 279.1875 C-184.98527344 278.24519531 -185.28304687 277.30289062 -185.58984375 276.33203125 C-188.66936539 265.69248225 -188.66936539 265.69248225 -185.6875 260.1875 C-181.55603006 256.96495345 -178.19882057 255.46061551 -172.80078125 255.72265625 C-168.66832529 256.63164379 -165.25513139 258.99733247 -161.6875 261.1875 C-157.38213405 263.28767851 -153.44207427 263.88075327 -148.6875 264.1875 C-147.6975 263.5275 -146.7075 262.8675 -145.6875 262.1875 C-146.06261719 261.3625 -146.43773437 260.5375 -146.82421875 259.6875 C-153.08584973 245.55545629 -157.31098463 231.47427454 -159.6875 216.1875 C-159.873125 215.00800781 -160.05875 213.82851562 -160.25 212.61328125 C-164.70080905 175.35802736 -156.24842758 132.20049697 -132.6875 102.1875 C-138.75440162 99.83424271 -144.87201729 97.84784636 -151.1015625 95.97265625 C-153.09909285 95.36307083 -155.09648462 94.75303115 -157.09375 94.14257812 C-160.21056271 93.19243233 -163.32816517 92.24528362 -166.44824219 91.3059082 C-169.48131859 90.39126547 -172.51037788 89.46422228 -175.5390625 88.53515625 C-176.93144638 88.12089134 -176.93144638 88.12089134 -178.35195923 87.69825745 C-185.57928619 85.46471875 -191.50413124 82.8499021 -195.6875 76.1875 C-197.03048919 71.00739883 -196.98512914 67.05847379 -194.6875 62.1875 C-188.44977144 58.5587039 -181.8226837 56.40792622 -174.9765625 54.203125 C-173.83763046 53.83094345 -172.69869843 53.4587619 -171.5252533 53.07530212 C-168.43457249 52.0669201 -165.34211913 51.06423048 -162.24870682 50.0642662 C-159.63283518 49.21748686 -157.0185578 48.36584389 -154.40427494 47.51417446 C-136.72716703 41.75577842 -119.02439244 36.07776871 -101.30883789 30.43881226 C-79.33202097 23.44181743 -57.42452992 16.23548629 -35.5218153 9.0105629 C-32.67865116 8.07287691 -29.83517198 7.13614841 -26.99166679 6.19949722 C-25.02052192 5.54964882 -23.0499295 4.8981451 -21.07936096 4.24655151 C-19.89768845 3.85718414 -18.71601593 3.46781677 -17.49853516 3.06665039 C-16.46798004 2.72630264 -15.43742493 2.3859549 -14.37564087 2.03529358 C-9.47307826 0.48910932 -5.1428067 0.00481086 0 0 Z " fill="#B81616" transform="translate(254.6875,0.8125)"/>
<path d="M0 0 C0.93295898 0.31275879 0.93295898 0.31275879 1.88476562 0.63183594 C21.03548647 7.05581192 39.05922269 16.68868942 49.08984375 34.98828125 C52.32692072 42.19338806 52.12042927 50.68205271 49.5625 58.0625 C41.85231505 74.85776303 25.30413362 84.45886931 8.71728516 90.88427734 C3.53326502 92.77284302 -1.71153603 94.43102397 -7 96 C-8.51787109 96.46019531 -8.51787109 96.46019531 -10.06640625 96.9296875 C-13.03055028 97.74767319 -15.98357562 98.40099374 -19 99 C-19.66612305 99.13535156 -20.33224609 99.27070313 -21.01855469 99.41015625 C-60.324067 107.07447222 -108.25699994 103.52395458 -142.6328125 81.6484375 C-152.80634417 74.56389894 -163.43498775 65.82506127 -166 53 C-167.18078501 42.37293495 -164.81621092 34.47754351 -158.5 25.9375 C-145.74413004 10.92644862 -127.38916561 3.44763786 -109 -2 C-108.02160156 -2.30679688 -107.04320312 -2.61359375 -106.03515625 -2.9296875 C-73.22215561 -12.27729708 -32.14152596 -11.43342839 0 0 Z " fill="#E96F6F" transform="translate(314,238)"/>
<path d="M0 0 C5.87416565 4.18989161 9.64608586 8.53449787 12.25 15.25 C13.17247025 15.24555878 14.09494049 15.24111755 15.04536438 15.23654175 C23.82497242 15.19613076 32.60454832 15.16584816 41.38422871 15.14637566 C45.89576055 15.13602751 50.40721427 15.12203671 54.91870117 15.09912109 C59.28891431 15.0770671 63.65905328 15.06536438 68.02931786 15.06024551 C69.67990471 15.05660716 71.33048844 15.04950682 72.98104286 15.03853989 C81.89943869 14.98174891 90.72362854 15.22718319 99.60620117 16.07470703 C100.39836438 16.14403883 101.19052759 16.21337063 102.00669575 16.28480339 C106.82122793 16.80035184 110.68183731 17.68183731 114.25 21.25 C114.33631874 22.59267413 114.35706473 23.93974322 114.34765625 25.28515625 C114.34443359 26.09404297 114.34121094 26.90292969 114.33789062 27.73632812 C114.32951172 28.58646484 114.32113281 29.43660156 114.3125 30.3125 C114.30798828 31.16650391 114.30347656 32.02050781 114.29882812 32.90039062 C114.28700373 35.01695663 114.26906769 37.13348685 114.25 39.25 C100.70542893 43.76485702 88.33577477 44.38177386 74.13319588 44.35753441 C69.63756733 44.35396001 65.14205569 44.37983935 60.64648438 44.40039062 C54.95586438 44.42476339 49.26561644 44.44031115 43.57495117 44.42504883 C38.94424158 44.41339988 34.31443485 44.43072718 29.6838665 44.46749306 C27.92684304 44.47610049 26.16973296 44.47404025 24.41273689 44.460989 C21.96172574 44.44411635 19.51358666 44.46425472 17.06274414 44.49291992 C15.98187279 44.47223198 15.98187279 44.47223198 14.87916565 44.4511261 C12.06946112 44.51483736 9.89041772 44.69088527 7.72566032 46.58082008 C6.48723473 48.07444261 5.36205987 49.66005376 4.25 51.25 C-5.15289328 58.81360477 -14.93346059 60.34321415 -26.75 59.25 C-34.04772275 57.63940533 -40.30511728 54.38668181 -45.75 49.25 C-46.12375763 48.56805069 -46.49751526 47.88610138 -46.88259888 47.18348694 C-48.69707785 44.91236124 -48.69707785 44.91236124 -52.08248901 44.75120544 C-53.48306954 44.73099588 -54.88406883 44.73283338 -56.28466797 44.75170898 C-57.05116669 44.74619019 -57.81766541 44.74067139 -58.60739136 44.73498535 C-60.27536331 44.72565202 -61.94340651 44.72557121 -63.61138535 44.73357964 C-66.27254068 44.74623813 -68.93266224 44.7348847 -71.59378052 44.71754456 C-77.27090001 44.68531902 -82.94780694 44.68581616 -88.625 44.6875 C-96.03918394 44.68463775 -103.45314031 44.66762079 -110.8671875 44.62109375 C-111.75716179 44.61557873 -112.64713608 44.61006371 -113.56407928 44.60438156 C-148.66979935 44.33020065 -148.66979935 44.33020065 -153.75 39.25 C-153.97705078 37.27880859 -153.97705078 37.27880859 -153.9453125 34.8984375 C-153.93564453 33.62226562 -153.93564453 33.62226562 -153.92578125 32.3203125 C-153.90902344 31.43085937 -153.89226562 30.54140625 -153.875 29.625 C-153.86597656 28.7278125 -153.85695313 27.830625 -153.84765625 26.90625 C-153.8240497 24.68723414 -153.7911231 22.46874923 -153.75 20.25 C-148.60185305 17.7878794 -144.13801339 16.61389365 -138.47509766 16.07470703 C-137.69392893 15.99485628 -136.9127602 15.91500553 -136.10791969 15.83273506 C-127.45609488 15.01946816 -118.83038885 14.99719221 -110.1484375 15.0546875 C-108.44780649 15.05843204 -106.74717327 15.06127216 -105.04653931 15.06326294 C-100.63754998 15.07078624 -96.228699 15.09033291 -91.81976318 15.1126709 C-87.29392365 15.13337755 -82.76806107 15.14231691 -78.2421875 15.15234375 C-69.41139586 15.1735933 -60.58071529 15.20758671 -51.75 15.25 C-51.45883301 14.30979004 -51.16766602 13.36958008 -50.86767578 12.40087891 C-48.57418903 5.93523015 -42.58680945 0.91171122 -36.5625 -2.1875 C-35.30012709 -2.72851696 -34.02987959 -3.25181031 -32.75 -3.75 C-31.8425 -4.1625 -30.935 -4.575 -30 -5 C-19.41400778 -7.44292128 -9.16858419 -5.72462519 0 0 Z " fill="#FCF8F8" transform="translate(277.75,61.75)"/>
<path d="M0 0 C9.71139327 -0.0467554 19.42274661 -0.08208519 29.13422871 -0.10362434 C33.64576055 -0.11397249 38.15721427 -0.12796329 42.66870117 -0.15087891 C47.03891431 -0.1729329 51.40905328 -0.18463562 55.77931786 -0.18975449 C57.42990471 -0.19339284 59.08048844 -0.20049318 60.73104286 -0.21146011 C69.64943869 -0.26825109 78.47362854 -0.02281681 87.35620117 0.82470703 C88.54444599 0.92870473 88.54444599 0.92870473 89.75669575 1.03480339 C94.57122793 1.55035184 98.43183731 2.43183731 102 6 C102.08631874 7.34267413 102.10706473 8.68974322 102.09765625 10.03515625 C102.09282227 11.24848633 102.09282227 11.24848633 102.08789062 12.48632812 C102.07532227 13.7615332 102.07532227 13.7615332 102.0625 15.0625 C102.05798828 15.91650391 102.05347656 16.77050781 102.04882812 17.65039062 C102.03700373 19.76695663 102.01906769 21.88348685 102 24 C87.63417698 28.78860767 74.3714393 29.14459716 59.328125 29.09765625 C57.5516565 29.0957871 55.77518747 29.09436555 53.99871826 29.09336853 C49.36281873 29.08958244 44.72695141 29.07978635 40.09106445 29.06866455 C35.34456823 29.05836559 30.59806672 29.05385287 25.8515625 29.04882812 C16.56769432 29.03815989 7.28384986 29.02113146 -2 29 C-1.78724426 28.39653748 -1.57448853 27.79307495 -1.35528564 27.17132568 C-1.07980896 26.37196594 -0.80433228 25.5726062 -0.52050781 24.74902344 C-0.24587708 23.95993591 0.02875366 23.17084839 0.31170654 22.35784912 C1.30602445 18.95166884 1.32329466 15.78280265 1.25 12.25 C1.23453125 10.99703125 1.2190625 9.7440625 1.203125 8.453125 C1.03003403 5.51057854 0.61244802 2.87077337 0 0 Z " fill="#E0DBDB" transform="translate(290,77)"/>
<path d="M0 0 C1.67821074 0.00374477 3.35642371 0.00658478 5.03463745 0.00857544 C9.38444394 0.01609693 13.73411008 0.03564188 18.0838623 0.0579834 C22.54937849 0.07869411 27.01491806 0.08763025 31.48046875 0.09765625 C40.19277169 0.11890258 48.90496199 0.1528936 57.6171875 0.1953125 C57.45710205 1.29311035 57.2970166 2.3909082 57.13208008 3.52197266 C55.99598319 11.62710013 55.9030106 18.04621587 59.7421875 25.41796875 C60.6171875 27.1953125 60.6171875 27.1953125 60.6171875 29.1953125 C50.41882907 29.26548798 40.22053008 29.31846091 30.02197742 29.35074902 C25.2840134 29.36626243 20.54621713 29.38723111 15.80834961 29.42163086 C-27.50725239 29.72773718 -27.50725239 29.72773718 -41.3828125 26.1953125 C-43.3828125 24.1953125 -43.3828125 24.1953125 -43.60986328 22.22412109 C-43.59938965 21.43859863 -43.58891602 20.65307617 -43.578125 19.84375 C-43.57167969 18.99296875 -43.56523438 18.1421875 -43.55859375 17.265625 C-43.54183594 16.37617187 -43.52507812 15.48671875 -43.5078125 14.5703125 C-43.49878906 13.673125 -43.48976563 12.7759375 -43.48046875 11.8515625 C-43.4568622 9.63254664 -43.4239356 7.41406173 -43.3828125 5.1953125 C-38.23025299 2.73037545 -33.76228156 1.55908488 -28.09423828 1.02001953 C-27.31270952 0.94016878 -26.53118076 0.86031803 -25.72596931 0.77804756 C-17.15123849 -0.02841328 -8.60467247 -0.05777861 0 0 Z " fill="#E0DBDB" transform="translate(167.3828125,76.8046875)"/>
<path d="M0 0 C5.96414595 3.56477689 10.24683428 8.47242663 12.4765625 15.09375 C13.61462578 22.83039175 12.60056598 28.55756607 8.19140625 35.03125 C4.26728565 39.75092125 -1.03399861 42.5362974 -7.06640625 43.5 C-14.60736962 43.76733105 -19.80233416 42.09597124 -25.5234375 37.09375 C-29.68337307 32.33597938 -31.86564528 27.82197749 -32.0859375 21.46875 C-31.55439608 13.59529276 -29.91175697 9.05626981 -24.0234375 3.65625 C-17.44336469 -1.94777868 -8.2109767 -2.94883374 0 0 Z " fill="#020000" transform="translate(192.5234375,128.90625)"/>
<path d="M0 0 C6.16259113 2.77733798 11.07967616 8.06346134 13.58203125 14.34765625 C14.50359387 21.59404867 14.29564234 28.16036163 10.28125 34.40625 C6.33154911 38.91889676 0.69477988 42.92583588 -5.3984375 43.55078125 C-12.38697431 43.69921035 -17.7403961 42.59925143 -23.16796875 38.03515625 C-28.68399718 31.44656674 -30.80375287 26.71509237 -30.69140625 18.19921875 C-30.10360258 12.06926616 -27.4500058 8.01737749 -22.91796875 3.97265625 C-16.16480728 -1.52196149 -8.4306229 -2.27449762 0 0 Z " fill="#020000" transform="translate(335.41796875,128.65234375)"/>
<path d="M0 0 C2.52215484 2.20954973 4.9553281 4.38554626 7.2109375 6.8671875 C7.2109375 7.5271875 7.2109375 8.1871875 7.2109375 8.8671875 C0.2809375 8.8671875 -6.6490625 8.8671875 -13.7890625 8.8671875 C-14.4490625 6.5571875 -15.1090625 4.2471875 -15.7890625 1.8671875 C-16.7790625 1.8671875 -17.7690625 1.8671875 -18.7890625 1.8671875 C-19.1190625 6.8171875 -19.4490625 11.7671875 -19.7890625 16.8671875 C-25.0690625 17.1971875 -30.3490625 17.5271875 -35.7890625 17.8671875 C-36.1190625 19.5171875 -36.4490625 21.1671875 -36.7890625 22.8671875 C-31.5090625 23.1971875 -26.2290625 23.5271875 -20.7890625 23.8671875 C-20.2940625 30.7971875 -20.2940625 30.7971875 -19.7890625 37.8671875 C-18.1390625 38.1971875 -16.4890625 38.5271875 -14.7890625 38.8671875 C-14.4590625 38.5371875 -14.1290625 38.2071875 -13.7890625 37.8671875 C-10.92638683 37.79393582 -8.0883435 37.77480545 -5.2265625 37.8046875 C-4.42025391 37.80919922 -3.61394531 37.81371094 -2.78320312 37.81835938 C-0.78512494 37.83018232 1.21291533 37.84811836 3.2109375 37.8671875 C-2.22041129 43.48745277 -6.69737151 46.00327183 -14.56030273 46.39477539 C-23.92857739 46.55024287 -30.36569809 44.42511104 -37.6640625 38.5546875 C-42.68652482 32.20274986 -45.24910557 25.47787023 -45.12890625 17.37109375 C-44.1571323 10.21124202 -40.20006684 4.37854147 -34.546875 0.046875 C-24.22748823 -6.87858012 -10.11448775 -7.73460828 0 0 Z " fill="#C0BDBD" transform="translate(274.7890625,68.1328125)"/>
<path d="M0 0 C3.69230769 0.69230769 3.69230769 0.69230769 5 2 C5 3.98 5 5.96 5 8 C12.26 7.67 19.52 7.34 27 7 C29.8101484 14.02537099 30.31431215 21.48670169 28.171875 28.84375 C26.76266878 32.08282101 25.50757969 34.49242031 23 37 C20.04009936 37.28342583 17.15383157 37.46681188 14.1875 37.5625 C12.57669255 37.62292135 10.9660047 37.68663571 9.35546875 37.75390625 C8.5979834 37.78500488 7.84049805 37.81610352 7.06005859 37.84814453 C4.83409451 37.96265494 4.83409451 37.96265494 2.05078125 38.65234375 C1.37402344 38.76707031 0.69726562 38.88179687 0 39 C-2 37 -2 37 -2.1953125 33.7421875 C-2.13020833 30.16145833 -2.06510417 26.58072917 -2 23 C-7.28 23 -12.56 23 -18 23 C-18.33 21.35 -18.66 19.7 -19 18 C-17 16 -17 16 -13.3046875 15.8046875 C-11.82799892 15.817991 -10.35137642 15.84185165 -8.875 15.875 C-8.12089844 15.88402344 -7.36679688 15.89304687 -6.58984375 15.90234375 C-4.72642746 15.9259313 -2.86317407 15.96180281 -1 16 C-1.01160156 14.92878906 -1.02320313 13.85757813 -1.03515625 12.75390625 C-1.04453299 11.35677257 -1.05363331 9.95963701 -1.0625 8.5625 C-1.07087891 7.85544922 -1.07925781 7.14839844 -1.08789062 6.41992188 C-1.09653588 4.61306441 -1.05220011 2.80612397 -1 1 C-0.67 0.67 -0.34 0.34 0 0 Z " fill="#C0BDBD" transform="translate(256,69)"/>
<path d="M0 0 C3.69230769 0.69230769 3.69230769 0.69230769 5 2 C5.07271741 4.35313555 5.08370868 6.70833668 5.0625 9.0625 C5.05347656 10.35285156 5.04445313 11.64320312 5.03515625 12.97265625 C5.02355469 13.97167969 5.01195312 14.97070312 5 16 C6.14339844 15.98839844 7.28679687 15.97679688 8.46484375 15.96484375 C9.95572754 15.95546712 11.44661309 15.94636679 12.9375 15.9375 C14.06961914 15.92493164 14.06961914 15.92493164 15.22460938 15.91210938 C17.14994313 15.90347559 19.07535581 15.94775667 21 16 C22 17 22 17 22.125 19.5 C22 22 22 22 21 23 C18.30345146 23.07319621 15.63308542 23.09242537 12.9375 23.0625 C12.17888672 23.05798828 11.42027344 23.05347656 10.63867188 23.04882812 C8.75908129 23.0370068 6.87953101 23.01907078 5 23 C5 27.95 5 32.9 5 38 C2.525 38.495 2.525 38.495 0 39 C-2 37 -2 37 -2.1953125 33.7421875 C-2.13020833 30.16145833 -2.06510417 26.58072917 -2 23 C-7.28 23 -12.56 23 -18 23 C-18.33 21.35 -18.66 19.7 -19 18 C-17 16 -17 16 -13.3046875 15.8046875 C-11.82799892 15.817991 -10.35137642 15.84185165 -8.875 15.875 C-8.12089844 15.88402344 -7.36679688 15.89304687 -6.58984375 15.90234375 C-4.72642746 15.9259313 -2.86317407 15.96180281 -1 16 C-1.01160156 14.92878906 -1.02320313 13.85757813 -1.03515625 12.75390625 C-1.04453299 11.35677257 -1.05363331 9.95963701 -1.0625 8.5625 C-1.07087891 7.85544922 -1.07925781 7.14839844 -1.08789062 6.41992188 C-1.09653588 4.61306441 -1.05220011 2.80612397 -1 1 C-0.67 0.67 -0.34 0.34 0 0 Z " fill="#FCFCFC" transform="translate(256,69)"/>
<path d="M0 0 C2.52215484 2.20954973 4.9553281 4.38554626 7.2109375 6.8671875 C7.2109375 7.5271875 7.2109375 8.1871875 7.2109375 8.8671875 C0.2809375 8.8671875 -6.6490625 8.8671875 -13.7890625 8.8671875 C-14.4490625 6.5571875 -15.1090625 4.2471875 -15.7890625 1.8671875 C-17.1090625 2.1971875 -18.4290625 2.5271875 -19.7890625 2.8671875 C-20.1190625 4.8471875 -20.4490625 6.8271875 -20.7890625 8.8671875 C-27.3890625 8.8671875 -33.9890625 8.8671875 -40.7890625 8.8671875 C-38.53275998 3.2264312 -38.53275998 3.2264312 -34.9140625 0.6796875 C-34.23601562 0.19113281 -33.55796875 -0.29742187 -32.859375 -0.80078125 C-22.95981045 -7.17012372 -9.44772291 -7.22472929 0 0 Z " fill="#9E1717" transform="translate(274.7890625,68.1328125)"/>
<path d="M0 0 C0.59296875 0.22042969 1.1859375 0.44085938 1.796875 0.66796875 C2.546875 2.85546875 2.546875 2.85546875 2.796875 5.66796875 C-0.24363215 11.31462488 -7.15604391 15.32969094 -13.1640625 17.31640625 C-22.26249135 18.88510088 -29.50256477 17.80636817 -37.203125 12.66796875 C-40.18834153 10.47791147 -42.02165139 8.78273524 -42.640625 4.98046875 C-42.203125 2.66796875 -42.203125 2.66796875 -40.203125 0.66796875 C-35.72963595 1.0407595 -33.2973724 4.1250142 -30.203125 7.07421875 C-26.30895992 10.17738155 -22.0481213 10.07171844 -17.203125 9.66796875 C-11.81855622 7.8130484 -7.83261107 4.74073027 -3.84375 0.7421875 C-2.203125 -0.33203125 -2.203125 -0.33203125 0 0 Z " fill="#080101" transform="translate(275.203125,163.33203125)"/>
<path d="M0 0 C2.72923388 -0.0270817 5.45819637 -0.04687847 8.1875 -0.0625 C8.95642578 -0.07087891 9.72535156 -0.07925781 10.51757812 -0.08789062 C14.51363042 -0.10504106 18.07780515 0.15463373 22 1 C22.33 0.67 22.66 0.34 23 0 C25.86267567 -0.07325168 28.700719 -0.09238205 31.5625 -0.0625 C32.36880859 -0.05798828 33.17511719 -0.05347656 34.00585938 -0.04882812 C36.00393756 -0.03700518 38.00197783 -0.01906914 40 0 C34.56895594 5.61994994 30.09112951 8.13760481 22.22802734 8.52709961 C14.67181386 8.65429382 8.16898448 7.69954826 2 3 C1.34 2.01 0.68 1.02 0 0 Z " fill="#9F1919" transform="translate(238,106)"/>
</svg>
