<svg width="89" height="89" viewBox="0 0 89 89" fill="none" xmlns="http://www.w3.org/2000/svg">
<path d="M81.5833 44.5C81.5833 64.97 64.97 81.5833 44.5 81.5833C24.03 81.5833 7.41666 64.97 7.41666 44.5C7.41666 24.03 24.03 7.41666 44.5 7.41666C64.97 7.41666 81.5833 24.03 81.5833 44.5Z" fill="#C0C0C0"/>
<path d="M58.2579 56.2925L46.7621 49.4321C44.7596 48.2454 43.1279 45.39 43.1279 43.0537V27.8496" fill="#C0C0C0"/>
<path d="M58.2579 56.2925L46.7621 49.4321C44.7596 48.2454 43.1279 45.39 43.1279 43.0537V27.8496M81.5833 44.5C81.5833 64.97 64.97 81.5833 44.5 81.5833C24.03 81.5833 7.41666 64.97 7.41666 44.5C7.41666 24.03 24.03 7.41666 44.5 7.41666C64.97 7.41666 81.5833 24.03 81.5833 44.5Z" stroke="#134D51" stroke-width="3" stroke-linecap="round" stroke-linejoin="round"/>
</svg>
