<svg width="31" height="31" viewBox="0 0 31 31" fill="none" xmlns="http://www.w3.org/2000/svg">
<g clip-path="url(#clip0_24_175)">
<path fill-rule="evenodd" clip-rule="evenodd" d="M13.7678 0.500497C14.2893 0.181672 14.8888 0.01297 15.5001 0.01297C16.1114 0.01297 16.7108 0.181672 17.2324 0.500497C17.754 0.819324 18.1774 1.2759 18.4562 1.81996L18.4611 1.82962L30.638 26.1837C30.8922 26.6888 31.0142 27.2523 30.9905 27.8174C30.9668 28.3832 30.799 28.9334 30.5027 29.4159C30.2064 29.8984 29.7919 30.2972 29.2981 30.5744C28.8046 30.8516 28.2481 30.998 27.6819 30.9998H3.31815C2.75198 30.998 2.19562 30.8516 1.70194 30.5744C1.20827 30.2972 0.793653 29.8984 0.497472 29.4159C0.201293 28.9334 0.0333819 28.3832 0.00968557 27.8174C-0.013983 27.2523 0.107011 26.6906 0.361187 26.1855L12.5439 1.81993C12.8227 1.27588 13.2462 0.819324 13.7678 0.500497ZM15.5 9.13392C16.4172 9.13392 17.1607 9.87746 17.1607 10.7946V17.9911C17.1607 18.9082 16.4172 19.6518 15.5 19.6518C14.5828 19.6518 13.8393 18.9082 13.8393 17.9911V10.7946C13.8393 9.87746 14.5828 9.13392 15.5 9.13392ZM17.7143 24.0804C17.7143 25.3033 16.7229 26.2946 15.5 26.2946C14.2771 26.2946 13.2857 25.3033 13.2857 24.0804C13.2857 22.8574 14.2771 21.8661 15.5 21.8661C16.7229 21.8661 17.7143 22.8574 17.7143 24.0804Z" fill="#B91616"/>
</g>
<defs>
<clipPath id="clip0_24_175">
<rect width="31" height="31" fill="white"/>
</clipPath>
</defs>
</svg>
