<svg width="19" height="92" viewBox="0 0 19 92" fill="none" xmlns="http://www.w3.org/2000/svg">
<path d="M16.144 64.44C16.0587 64.6107 16.016 64.7387 16.016 64.824C16.016 64.9093 15.9733 64.9947 15.888 65.08C15.7173 65.2507 15.0773 65.336 13.968 65.336H4.496C4.15467 65.336 3.984 65.2507 3.984 65.08C3.728 64.824 3.6 64.0987 3.6 62.904L1.808 4.28C1.72267 2.488 1.808 1.42133 2.064 1.07999C2.32 0.73866 3.04534 0.567993 4.24 0.567993H15.632C16.8267 0.567993 17.5093 0.73866 17.68 1.07999C17.936 1.42133 18.0213 2.488 17.936 4.28L16.144 62.904V64.44ZM9.872 91.064C7.312 91.064 5.17867 90.168 3.472 88.376C1.76533 86.6693 0.912001 84.5787 0.912001 82.104C0.912001 79.6293 1.76533 77.496 3.472 75.704C5.17867 73.912 7.312 73.016 9.872 73.016C12.432 73.016 14.5653 73.912 16.272 75.704C18.064 77.496 18.96 79.6293 18.96 82.104C18.96 84.5787 18.064 86.6693 16.272 88.376C14.5653 90.168 12.432 91.064 9.872 91.064Z" fill="white"/>
</svg>
