<svg width="54" height="54" viewBox="0 0 54 54" fill="none" xmlns="http://www.w3.org/2000/svg">
<g clip-path="url(#clip0_26_506)">
<path fill-rule="evenodd" clip-rule="evenodd" d="M31.0562 3.31897C31.0562 1.72129 29.761 0.426117 28.1633 0.426117C24.491 0.426117 20.8546 1.14943 17.4619 2.55477C14.0691 3.96009 10.9863 6.01992 8.38958 8.61667C5.79288 11.2134 3.73303 14.2962 2.32769 17.6889C0.922353 21.0817 0.199036 24.7181 0.199036 28.3904C0.199036 29.9881 1.49421 31.2832 3.09189 31.2832C4.68958 31.2832 5.98477 29.9881 5.98477 28.3904C5.98477 25.4779 6.5584 22.5939 7.673 19.903C8.78756 17.2122 10.4212 14.7673 12.4807 12.7078C14.5402 10.6483 16.9851 9.01465 19.676 7.90009C22.3668 6.78549 25.2508 6.21182 28.1633 6.21182C29.761 6.21182 31.0562 4.91666 31.0562 3.31897ZM26.9141 51.9156C24.9145 53.2031 22.5345 53.7674 20.1698 53.5148C17.805 53.2621 15.598 52.208 13.9155 50.527L12.4498 49.0613C11.7997 48.4041 11.435 47.5169 11.435 46.5928C11.435 45.6682 11.7997 44.7814 12.4498 44.1242L18.6212 37.9913C19.2718 37.3436 20.1524 36.9799 21.0705 36.9799C21.9886 36.9799 22.8692 37.3436 23.5198 37.9913C24.1769 38.6413 25.064 39.0061 25.9883 39.0061C26.9127 39.0061 27.7998 38.6413 28.4569 37.9913L38.2926 28.1556C38.9429 27.4984 39.3074 26.6114 39.3074 25.687C39.3074 24.7626 38.9429 23.8756 38.2926 23.2184C37.6449 22.5678 37.2812 21.6872 37.2812 20.7691C37.2812 19.8511 37.6449 18.9704 38.2926 18.3198L44.2325 12.1484C44.8898 11.4983 45.7769 11.1337 46.7011 11.1337C47.6257 11.1337 48.5128 11.4983 49.1697 12.1484L50.6354 13.6141C52.3464 15.2729 53.4368 17.4682 53.7246 19.8338C54.0123 22.1994 53.4804 24.5921 52.2168 26.6127C45.4911 36.598 36.8993 45.1899 26.9141 51.9156ZM29.3743 11.5828C30.972 11.5828 32.2672 12.878 32.2672 14.4757C32.2672 16.0734 30.972 17.3686 29.3743 17.3686C26.0497 17.3686 22.8612 18.6893 20.5102 21.0402C18.1593 23.3911 16.8386 26.5796 16.8386 29.9043C16.8386 31.5019 15.5434 32.7971 13.9458 32.7971C12.3481 32.7971 11.0529 31.5019 11.0529 29.9043C11.0529 25.0451 12.9832 20.385 16.4191 16.9491C19.8551 13.5131 24.5152 11.5828 29.3743 11.5828Z" fill="white"/>
</g>
<defs>
<clipPath id="clip0_26_506">
<rect width="54" height="54" fill="white"/>
</clipPath>
</defs>
</svg>
