<svg width="26" height="26" viewBox="0 0 26 26" fill="none" xmlns="http://www.w3.org/2000/svg">
<g clip-path="url(#clip0_10_489)">
<path fill-rule="evenodd" clip-rule="evenodd" d="M18.2094 1.38434C18.5451 -0.148981 20.7283 -0.158525 21.0773 1.3718L21.0935 1.44276C21.1042 1.49048 21.1146 1.53575 21.1254 1.58169C21.516 3.24511 22.862 4.51612 24.5472 4.80929C26.1469 5.08762 26.1469 7.38418 24.5472 7.66251C22.8531 7.95724 21.5015 9.24026 21.1191 10.9168L21.0773 11.1C20.7283 12.6303 18.5451 12.6208 18.2094 11.0875L18.175 10.9302C17.8067 9.24765 16.457 7.95512 14.7601 7.65991C13.1632 7.3821 13.1632 5.0897 14.7601 4.81189C16.4511 4.5177 17.7973 3.23313 18.1711 1.55913L18.1965 1.44366L18.2094 1.38434ZM14.4312 9.55033C11.9393 9.11682 11.1181 6.57561 11.9675 4.75288C11.8986 4.68478 11.8235 4.62259 11.7429 4.56715C11.4689 4.37856 11.1443 4.27712 10.8116 4.27614H9.45745C9.12478 4.27712 8.80017 4.37856 8.52611 4.56715C8.25207 4.75574 8.04136 5.02269 7.92161 5.33306L7.2115 7.16615L4.76737 8.55336L2.81867 8.25611C2.49419 8.21205 2.16395 8.26547 1.86989 8.40956C1.57584 8.55364 1.33127 8.7819 1.16724 9.0653L0.506664 10.2213C0.337395 10.5092 0.259408 10.8417 0.282993 11.1749C0.306581 11.508 0.430633 11.8262 0.638779 12.0874L1.87736 13.6233V16.3977L0.671809 17.9335C0.463662 18.1947 0.339608 18.5129 0.316023 18.8461C0.292435 19.1793 0.370424 19.5117 0.539693 19.7995L1.20027 20.9556C1.36429 21.239 1.60887 21.4673 1.90293 21.6114C2.19697 21.7555 2.52723 21.809 2.85171 21.7648L4.80041 21.4676L7.2115 22.8547L7.92161 24.6879C8.04136 24.9982 8.25207 25.2653 8.52611 25.4538C8.80017 25.6423 9.12478 25.7439 9.45745 25.7448H10.8446C11.1773 25.7439 11.5019 25.6423 11.776 25.4538C12.05 25.2653 12.2607 24.9982 12.3805 24.6879L13.0906 22.8547L15.5017 21.4676L17.4504 21.7648C17.7749 21.809 18.1051 21.7555 18.3992 21.6114C18.6933 21.4673 18.9379 21.239 19.1019 20.9556L19.7624 19.7995C19.9316 19.5117 20.0096 19.1793 19.986 18.8461C19.9625 18.5129 19.8384 18.1947 19.6302 17.9335L18.3917 16.3977V13.9337C17.4223 13.5661 16.6099 12.7536 16.335 11.4978L16.3006 11.3406C16.0989 10.4195 15.3601 9.71194 14.4312 9.55033ZM10.1345 18.4608C12.0401 18.4608 13.5849 16.916 13.5849 15.0105C13.5849 13.1049 12.0401 11.5601 10.1345 11.5601C8.22899 11.5601 6.68422 13.1049 6.68422 15.0105C6.68422 16.916 8.22899 18.4608 10.1345 18.4608Z" fill="black"/>
</g>
<defs>
<clipPath id="clip0_10_489">
<rect width="26" height="26" fill="white"/>
</clipPath>
</defs>
</svg>
