<svg width="26" height="26" viewBox="0 0 26 26" fill="none" xmlns="http://www.w3.org/2000/svg">
<g clip-path="url(#clip0_102_150)">
<path fill-rule="evenodd" clip-rule="evenodd" d="M18.2094 1.38434C18.5451 -0.148981 20.7283 -0.158525 21.0773 1.3718L21.0934 1.44276C21.1042 1.49048 21.1146 1.53575 21.1254 1.58169C21.5159 3.24511 22.862 4.51612 24.5472 4.80929C26.1469 5.08762 26.1469 7.38418 24.5472 7.66251C22.8531 7.95724 21.5014 9.24026 21.1191 10.9168L21.0773 11.1C20.7283 12.6303 18.5451 12.6208 18.2094 11.0874L18.175 10.9302C17.8067 9.24765 16.457 7.95512 14.7601 7.65991C13.1632 7.3821 13.1632 5.0897 14.7601 4.81189C16.4511 4.5177 17.7973 3.23313 18.1711 1.55913L18.1965 1.44366L18.2094 1.38434ZM14.4311 9.55033C11.9393 9.11682 11.118 6.57561 11.9675 4.75288C11.8986 4.68478 11.8235 4.62259 11.7429 4.56715C11.4689 4.37856 11.1443 4.27712 10.8116 4.27614H9.45742C9.12475 4.27712 8.80014 4.37856 8.52608 4.56715C8.25204 4.75574 8.04133 5.02269 7.92158 5.33306L7.21147 7.16615L4.76734 8.55336L2.81864 8.25611C2.49416 8.21205 2.16392 8.26547 1.86986 8.40956C1.57581 8.55364 1.33123 8.7819 1.16721 9.0653L0.506634 10.2213C0.337364 10.5092 0.259377 10.8417 0.282963 11.1749C0.30655 11.508 0.430602 11.8262 0.638749 12.0874L1.87733 13.6233V16.3977L0.671778 17.9335C0.463631 18.1947 0.339578 18.5129 0.315992 18.8461C0.292405 19.1793 0.370393 19.5117 0.539663 19.7995L1.20024 20.9556C1.36426 21.239 1.60884 21.4673 1.9029 21.6114C2.19694 21.7555 2.5272 21.809 2.85168 21.7648L4.80038 21.4676L7.21147 22.8547L7.92158 24.6879C8.04133 24.9982 8.25204 25.2653 8.52608 25.4538C8.80014 25.6423 9.12475 25.7439 9.45742 25.7448H10.8446C11.1773 25.7439 11.5019 25.6423 11.776 25.4538C12.05 25.2653 12.2607 24.9982 12.3805 24.6879L13.0906 22.8547L15.5017 21.4676L17.4504 21.7648C17.7748 21.809 18.1051 21.7555 18.3991 21.6114C18.6933 21.4673 18.9378 21.239 19.1018 20.9556L19.7624 19.7995C19.9316 19.5117 20.0096 19.1793 19.986 18.8461C19.9624 18.5129 19.8384 18.1947 19.6302 17.9335L18.3917 16.3977V13.9337C17.4222 13.5661 16.6099 12.7536 16.335 11.4978L16.3005 11.3406C16.0989 10.4195 15.3601 9.71194 14.4311 9.55033ZM10.1345 18.4608C12.0401 18.4608 13.5848 16.916 13.5848 15.0105C13.5848 13.1049 12.0401 11.5601 10.1345 11.5601C8.22896 11.5601 6.68419 13.1049 6.68419 15.0105C6.68419 16.916 8.22896 18.4608 10.1345 18.4608Z" fill="black"/>
</g>
<defs>
<clipPath id="clip0_102_150">
<rect width="26" height="26" fill="white"/>
</clipPath>
</defs>
</svg>
